<svg width="97" height="96" viewBox="0 0 97 96" fill="none" xmlns="http://www.w3.org/2000/svg">
<rect x="0.5" width="96" height="96" rx="48" fill="#23A6F0"/>
<g clip-path="url(#clip0_1479_22235)">
<path d="M63.7727 47.7647H59.4091V54.353H52.8636V58.7451H63.7727V47.7647ZM37.5909 41.1765H44.1364V36.7843H33.2273V47.7647H37.5909V41.1765ZM68.1364 28H28.8636C27.7063 28 26.5964 28.4627 25.7781 29.2864C24.9597 30.1101 24.5 31.2273 24.5 32.3922V63.1373C24.5 64.3022 24.9597 65.4193 25.7781 66.243C26.5964 67.0667 27.7063 67.5294 28.8636 67.5294H68.1364C69.2937 67.5294 70.4036 67.0667 71.2219 66.243C72.0403 65.4193 72.5 64.3022 72.5 63.1373V32.3922C72.5 31.2273 72.0403 30.1101 71.2219 29.2864C70.4036 28.4627 69.2937 28 68.1364 28ZM68.1364 63.1373H28.8636V32.3922H68.1364V63.1373Z" fill="white"/>
</g>
<defs>
<clipPath id="clip0_1479_22235">
<rect width="48" height="39.5294" fill="white" transform="translate(24.5 28)"/>
</clipPath>
</defs>
</svg>
