<svg width="17" height="17" viewBox="0 0 17 17" fill="none" xmlns="http://www.w3.org/2000/svg">
<path d="M5.08682 9.91055L4.10386 14.167C4.07342 14.2958 4.08256 14.4309 4.13008 14.5545C4.1776 14.6781 4.26129 14.7845 4.37023 14.8598C4.47916 14.9352 4.60828 14.9759 4.74071 14.9766C4.87314 14.9774 5.00272 14.9383 5.11255 14.8643L8.70463 12.4695L12.2967 14.8643C12.4091 14.9389 12.5416 14.9773 12.6765 14.9743C12.8113 14.9714 12.942 14.9272 13.051 14.8477C13.16 14.7683 13.2421 14.6573 13.2861 14.5298C13.3302 14.4024 13.3341 14.2644 13.2975 14.1346L12.0909 9.91253L15.0833 7.21962C15.1791 7.13332 15.2476 7.02083 15.2802 6.89604C15.3127 6.77126 15.308 6.63966 15.2666 6.51753C15.2252 6.39539 15.1489 6.28807 15.0471 6.20884C14.9454 6.12961 14.8226 6.08194 14.6941 6.07174L10.9331 5.77223L9.30562 2.16959C9.25373 2.05359 9.16937 1.95508 9.06272 1.88596C8.95608 1.81684 8.83171 1.78006 8.70463 1.78006C8.57755 1.78006 8.45318 1.81684 8.34654 1.88596C8.23989 1.95508 8.15553 2.05359 8.10364 2.16959L6.47615 5.77223L2.71519 6.07108C2.58882 6.08109 2.46802 6.12729 2.36723 6.20416C2.26644 6.28103 2.18993 6.38531 2.14685 6.50452C2.10377 6.62373 2.09595 6.75284 2.12432 6.87638C2.15269 6.99992 2.21606 7.11267 2.30683 7.20115L5.08682 9.91055ZM6.96895 7.05667C7.0867 7.0474 7.19979 7.00661 7.29636 6.9386C7.39293 6.87058 7.46943 6.77783 7.51782 6.67009L8.70463 4.04381L9.89144 6.67009C9.93983 6.77783 10.0163 6.87058 10.1129 6.9386C10.2095 7.00661 10.3226 7.0474 10.4403 7.05667L13.0606 7.26448L10.9028 9.20665C10.7154 9.37553 10.6409 9.63545 10.7095 9.87822L11.5361 12.771L9.07142 11.1277C8.96324 11.0551 8.83591 11.0163 8.70562 11.0163C8.57533 11.0163 8.44799 11.0551 8.33981 11.1277L5.76433 12.8449L6.45702 9.8459C6.48242 9.7356 6.47901 9.62062 6.44712 9.51201C6.41524 9.40341 6.35594 9.30484 6.27494 9.22578L4.27077 7.27174L6.96895 7.05667Z" fill="#F3CD03"/>
</svg>
