<svg width="16" height="17" viewBox="0 0 16 17" fill="none" xmlns="http://www.w3.org/2000/svg">
<path d="M14.5503 6.51697C14.5089 6.39484 14.4325 6.28752 14.3308 6.20827C14.229 6.12902 14.1063 6.0813 13.9777 6.07101L10.2167 5.77216L8.58924 2.16953C8.53741 2.05349 8.45311 1.95494 8.3465 1.88576C8.2399 1.81658 8.11555 1.77973 7.98847 1.77966C7.86138 1.77959 7.73699 1.8163 7.63031 1.88537C7.52363 1.95443 7.43922 2.05289 7.38726 2.16887L5.75978 5.77216L1.99881 6.07101C1.87245 6.08102 1.75164 6.12722 1.65085 6.20409C1.55006 6.28096 1.47355 6.38524 1.43047 6.50445C1.38739 6.62367 1.37957 6.75277 1.40794 6.87631C1.43631 6.99985 1.49968 7.11261 1.59045 7.20108L4.36978 9.91048L3.38682 14.1669C3.35698 14.2957 3.36654 14.4306 3.41428 14.5539C3.46202 14.6772 3.54572 14.7834 3.65453 14.8585C3.76334 14.9337 3.89223 14.9744 4.02448 14.9755C4.15673 14.9765 4.28623 14.9377 4.39617 14.8642L7.98825 12.4695L11.5803 14.8642C11.6927 14.9388 11.8252 14.9772 11.9601 14.9743C12.0949 14.9713 12.2256 14.9271 12.3346 14.8476C12.4436 14.7682 12.5257 14.6573 12.5697 14.5298C12.6138 14.4023 12.6178 14.2644 12.5811 14.1346L11.3745 9.91246L14.3669 7.21955C14.5629 7.04275 14.6348 6.767 14.5503 6.51697Z" fill="#F3CD03"/>
</svg>
